<?xml version="1.0" standalone="no"?>
<!DOCTYPE svg PUBLIC "-//W3C//DTD SVG 20010904//EN"
 "http://www.w3.org/TR/2001/REC-SVG-20010904/DTD/svg10.dtd">
<svg version="1.0" xmlns="http://www.w3.org/2000/svg"
 width="908.000000pt" height="885.000000pt" viewBox="0 0 908.000000 885.000000"
 preserveAspectRatio="xMidYMid meet">

<g transform="translate(0.000000,885.000000) scale(0.100000,-0.100000)"
fill="#FFFFFF" stroke="none">
<path d="M4240 8269 c-41 -5 -122 -13 -180 -19 -178 -17 -422 -60 -540 -95
-30 -9 -71 -20 -90 -24 -73 -17 -344 -112 -457 -161 -102 -45 -356 -168 -418
-204 -99 -56 -232 -144 -353 -234 -511 -379 -914 -860 -1193 -1422 -74 -149
-160 -353 -175 -415 -4 -17 -10 -34 -14 -40 -17 -24 -114 -393 -141 -535 -62
-334 -81 -676 -55 -970 21 -224 47 -410 74 -530 6 -25 21 -88 32 -140 12 -52
28 -113 35 -135 7 -22 20 -65 30 -95 9 -30 20 -64 25 -75 4 -11 24 -67 45
-125 51 -144 54 -151 155 -355 243 -491 493 -819 935 -1230 108 -100 321 -268
400 -315 22 -13 42 -28 43 -32 2 -4 8 -8 13 -8 6 0 27 -13 47 -29 20 -16 64
-43 97 -61 33 -17 65 -35 70 -40 20 -16 190 -100 203 -100 6 0 12 -4 12 -10 0
-5 4 -10 9 -10 6 0 61 -24 123 -54 208 -100 426 -174 676 -231 165 -38 204
-46 302 -60 235 -34 305 -37 615 -32 365 7 522 25 815 91 164 37 320 85 320
98 0 5 5 6 11 3 8 -6 141 37 234 75 69 29 365 176 439 219 49 28 93 51 97 51
5 0 9 5 9 10 0 6 5 10 11 10 11 0 158 96 169 110 3 3 23 17 45 30 36 21 233
168 261 195 6 5 45 39 85 74 118 102 301 291 460 477 143 165 368 512 487 749
87 174 206 466 228 560 4 17 9 35 13 40 15 26 100 357 112 440 6 39 17 113 24
165 30 203 37 354 31 635 -3 154 -8 291 -11 305 -4 14 -11 59 -16 100 -9 76
-14 103 -44 240 -16 75 -55 241 -80 335 -13 51 -69 223 -85 260 -4 11 -25 61
-45 110 -138 332 -385 746 -589 986 -17 20 -55 65 -85 100 -104 123 -388 395
-515 494 -134 104 -276 205 -361 256 -27 16 -57 34 -65 39 -108 68 -425 230
-449 230 -7 0 -25 7 -39 14 -15 8 -43 21 -62 29 -19 8 -53 22 -75 30 -22 9
-71 26 -110 38 -38 12 -79 25 -90 30 -113 48 -452 114 -760 149 -183 21 -553
25 -695 9z m580 -179 c120 -10 290 -33 400 -55 41 -8 100 -19 130 -24 30 -6
66 -15 80 -20 14 -6 54 -17 90 -26 116 -28 140 -35 158 -45 9 -5 44 -18 77
-29 154 -52 254 -92 400 -162 376 -181 701 -413 1005 -719 210 -212 470 -554
595 -785 72 -133 156 -300 190 -380 66 -157 95 -230 95 -238 0 -5 6 -23 14
-40 7 -18 23 -70 36 -117 12 -47 28 -105 36 -130 21 -72 43 -181 64 -318 11
-70 25 -152 31 -182 16 -87 23 -527 10 -680 -19 -224 -36 -333 -90 -582 -23
-107 -123 -428 -141 -453 -4 -5 -10 -23 -14 -40 -4 -16 -21 -58 -37 -93 -16
-35 -29 -67 -29 -72 0 -5 -13 -32 -30 -60 -16 -28 -30 -54 -30 -58 0 -15 -88
-172 -183 -327 -49 -80 -137 -210 -185 -272 -31 -41 -61 -82 -67 -91 -26 -41
-184 -217 -310 -346 -53 -54 -224 -208 -261 -234 -22 -16 -78 -60 -123 -96
-204 -165 -544 -365 -784 -461 -51 -21 -105 -44 -121 -51 -16 -8 -35 -14 -42
-14 -7 0 -39 -11 -70 -25 -32 -14 -82 -32 -113 -39 -120 -31 -147 -38 -166
-46 -43 -18 -332 -76 -418 -83 -37 -3 -72 -9 -77 -12 -13 -8 -316 -29 -425
-29 -108 0 -408 21 -470 33 -27 5 -84 15 -125 21 -152 24 -311 57 -350 73 -8
3 -49 15 -90 27 -76 22 -168 53 -205 69 -106 46 -267 111 -275 111 -5 0 -10 3
-10 8 0 4 -21 16 -48 26 -26 11 -84 41 -129 68 -45 26 -84 48 -86 48 -4 0 -45
24 -200 118 -85 51 -259 181 -362 270 -238 205 -388 358 -548 561 -103 130
-232 315 -280 401 -35 64 -62 109 -93 161 -30 50 -76 143 -132 269 -11 25 -36
88 -56 140 -20 52 -41 104 -45 115 -12 25 -68 210 -77 250 -3 17 -12 50 -19
75 -32 114 -65 283 -92 480 -22 157 -25 687 -5 820 26 176 35 235 37 250 3 25
25 133 35 170 5 19 16 67 25 105 26 106 55 206 71 242 8 17 14 38 14 47 0 9 4
24 10 34 11 20 30 66 60 147 27 70 163 347 208 423 18 29 32 55 32 57 0 7 129
203 184 280 185 258 533 623 710 744 12 8 37 29 57 46 19 17 89 67 155 111 65
43 122 83 126 89 5 6 8 6 8 0 0 -6 3 -5 8 1 14 23 267 157 417 223 82 36 86
38 185 76 52 20 104 40 115 45 38 16 226 71 293 86 37 9 94 22 127 30 33 9 86
19 117 24 31 4 78 12 105 18 40 9 223 31 373 45 76 8 431 5 530 -3z m-2460
-540 c0 -5 -4 -10 -9 -10 -6 0 -13 5 -16 10 -3 6 1 10 9 10 9 0 16 -4 16 -10z
m5935 -2321 c4 -5 -5 -9 -19 -9 -14 0 -26 4 -26 8 0 11 39 12 45 1z m10 -449
c3 -5 1 -10 -4 -10 -6 0 -11 5 -11 10 0 6 2 10 4 10 3 0 8 -4 11 -10z m-9
-987 c-10 -10 -19 5 -10 18 6 11 8 11 12 0 2 -7 1 -15 -2 -18z m-7346 -777 c0
-3 -4 -8 -10 -11 -5 -3 -10 -1 -10 4 0 6 5 11 10 11 6 0 10 -2 10 -4z m1977
-2088 c-3 -8 -6 -5 -6 6 -1 11 2 17 5 13 3 -3 4 -12 1 -19z m621 -211 c2 -10
-3 -17 -12 -17 -10 0 -16 9 -16 21 0 24 23 21 28 -4z"/>
<path d="M4285 8029 c-138 -8 -282 -25 -340 -38 -22 -6 -60 -12 -85 -16 -76
-9 -216 -41 -355 -80 -85 -24 -279 -85 -300 -95 -11 -5 -45 -19 -75 -30 -30
-11 -64 -25 -75 -29 -11 -5 -47 -21 -80 -36 -77 -34 -229 -112 -277 -142 -21
-12 -41 -23 -44 -23 -17 0 -267 -170 -399 -271 -174 -133 -450 -400 -545 -527
-14 -19 -32 -41 -41 -50 -23 -24 -189 -247 -231 -312 -100 -154 -239 -414
-298 -560 -12 -30 -26 -64 -31 -75 -49 -113 -111 -306 -148 -465 -49 -210 -52
-227 -62 -293 -4 -34 -14 -98 -21 -142 -16 -104 -16 -716 0 -835 7 -47 16
-119 22 -160 9 -72 13 -95 46 -245 21 -93 79 -305 94 -340 5 -11 20 -54 33
-95 88 -262 287 -643 462 -880 11 -15 29 -40 40 -56 18 -26 142 -182 155 -194
3 -3 36 -41 74 -85 120 -138 317 -322 541 -503 23 -19 137 -95 285 -191 142
-92 575 -302 700 -339 19 -6 55 -18 80 -27 63 -23 206 -65 260 -76 25 -5 79
-16 120 -24 268 -57 531 -79 820 -71 240 7 357 20 598 65 134 25 357 86 430
117 18 8 41 14 52 14 10 0 21 4 25 9 3 5 20 13 38 16 82 18 360 144 532 242
186 106 444 290 611 437 133 117 356 348 461 478 142 176 329 459 408 618 18
36 44 88 58 115 37 71 110 247 142 341 15 43 31 88 36 99 4 11 13 38 19 60 6
22 18 63 26 90 15 48 39 149 70 285 52 229 86 708 64 910 -6 58 -13 141 -15
185 -6 93 -10 118 -64 365 -47 218 -59 269 -71 291 -5 9 -12 33 -15 53 -4 20
-11 39 -16 42 -5 3 -9 12 -9 20 0 16 -59 172 -95 249 -13 28 -35 77 -49 110
-15 33 -32 69 -37 79 -6 10 -29 53 -52 95 -22 42 -49 90 -59 106 -10 17 -21
37 -25 45 -10 23 -201 304 -221 326 -9 10 -42 51 -72 89 -100 129 -246 287
-365 395 -38 35 -90 82 -115 104 -53 49 -155 128 -225 176 -27 18 -92 62 -143
97 -51 35 -95 63 -97 63 -3 0 -34 18 -70 40 -67 41 -385 200 -401 200 -5 1
-26 9 -48 19 -46 22 -385 133 -471 155 -384 97 -747 130 -1160 105z m575 -69
c146 -15 378 -51 445 -68 22 -6 78 -21 125 -33 47 -12 104 -28 128 -35 23 -8
52 -14 62 -14 11 0 28 -4 38 -10 25 -14 79 -35 152 -60 36 -12 93 -35 128 -51
35 -16 65 -29 67 -29 6 0 169 -81 250 -124 75 -40 315 -192 403 -255 215 -154
514 -443 684 -661 105 -135 241 -331 293 -425 53 -94 155 -289 155 -296 0 -4
16 -39 35 -78 19 -39 35 -73 35 -77 0 -3 6 -20 14 -37 31 -73 40 -97 71 -192
18 -55 43 -140 55 -190 12 -49 24 -97 28 -105 10 -26 31 -140 58 -315 24 -156
26 -196 26 -480 0 -278 -3 -329 -26 -490 -13 -99 -32 -211 -41 -250 -9 -38
-20 -89 -25 -112 -23 -105 -99 -343 -157 -493 -22 -58 -186 -394 -216 -445
-54 -89 -215 -329 -276 -410 -232 -308 -585 -635 -931 -865 -52 -34 -107 -71
-122 -81 -15 -11 -30 -19 -33 -19 -3 0 -22 -11 -43 -23 -92 -58 -385 -197
-415 -197 -9 0 -19 -4 -22 -10 -3 -5 -14 -10 -23 -10 -9 0 -29 -6 -44 -14 -15
-8 -41 -17 -59 -21 -19 -4 -40 -11 -49 -16 -55 -31 -415 -121 -550 -139 -47
-6 -114 -15 -150 -20 -118 -17 -182 -20 -430 -20 -371 0 -559 26 -955 129 -70
18 -212 64 -250 81 -11 5 -36 15 -55 24 -19 8 -56 24 -82 35 -26 12 -50 21
-54 21 -13 0 -321 158 -379 195 -100 63 -290 189 -295 195 -3 3 -36 30 -75 60
-369 285 -700 657 -932 1050 -101 170 -119 205 -188 355 -56 125 -159 408
-185 515 -34 137 -42 172 -56 240 -18 90 -41 242 -55 365 -13 120 -13 648 1
755 11 93 30 203 54 320 28 139 37 175 46 192 6 10 10 26 10 36 0 20 61 209
103 322 222 592 654 1163 1187 1571 87 66 315 219 327 219 3 0 14 6 22 14 20
17 197 108 309 159 45 21 82 42 82 48 0 5 5 7 10 4 12 -8 180 55 180 67 0 4 7
5 15 2 8 -4 21 -2 28 4 6 5 28 13 47 17 19 4 41 11 50 16 8 4 35 13 60 19 25
6 81 20 125 32 179 46 398 84 615 107 109 12 539 12 650 1z"/>
<path d="M4435 7643 c-18 -2 -83 -43 -165 -104 -74 -55 -146 -107 -159 -117
-71 -50 -419 -314 -481 -364 -19 -16 -39 -32 -45 -36 -128 -95 -319 -243 -349
-271 -47 -44 -68 -89 -75 -161 l-6 -55 -220 -6 c-121 -4 -247 -9 -280 -12 -33
-4 -116 -9 -184 -12 -152 -8 -216 -28 -261 -85 -16 -21 -30 -42 -30 -47 0 -6
-7 -24 -16 -42 -18 -37 -13 -61 16 -68 11 -3 20 -8 20 -12 0 -4 -15 -52 -34
-106 -18 -55 -44 -136 -56 -180 -13 -44 -24 -81 -24 -82 -1 -1 -71 -9 -156
-17 -85 -9 -180 -24 -210 -33 -150 -44 -214 -136 -228 -328 l-7 -100 -50 -6
c-83 -9 -131 -27 -175 -67 l-42 -37 -10 -105 c-14 -134 -3 -179 55 -235 40
-38 42 -43 37 -85 l-5 -45 -52 -6 c-29 -4 -60 -9 -68 -13 -31 -12 -45 -71 -45
-191 0 -110 1 -117 25 -140 22 -23 31 -25 123 -25 63 0 102 -4 110 -12 7 -7
12 -31 12 -53 0 -100 64 -244 151 -339 46 -50 56 -66 42 -67 -10 0 -36 -2 -58
-4 -22 -2 -93 -7 -158 -11 -64 -3 -119 -9 -122 -13 -2 -5 64 -11 148 -16 84
-4 168 -10 187 -12 19 -3 81 -7 137 -10 185 -8 108 -21 -156 -25 -143 -2 -263
-7 -267 -11 -4 -4 -4 -10 0 -14 14 -15 6194 -8 6221 6 6 3 19 7 29 8 50 8 20
13 -80 14 -60 0 -127 3 -149 5 -22 2 -162 7 -312 12 -150 4 -275 11 -279 15
-4 4 55 8 132 8 76 1 186 3 244 5 453 13 532 17 516 26 -9 5 -58 11 -109 14
-50 2 -168 8 -262 14 -221 13 -401 19 -604 20 -155 0 -163 1 -149 18 47 56 96
201 100 300 l3 63 345 -1 345 0 104 -47 c130 -58 135 -56 139 53 6 142 0 150
-188 264 -164 99 -221 130 -237 130 -20 0 -11 38 22 85 13 20 27 45 30 56 4
10 16 21 28 24 44 9 218 25 283 25 102 0 141 30 145 113 2 31 -3 53 -17 72
-45 64 -54 81 -54 105 0 33 -34 138 -61 192 -12 24 -52 73 -90 110 -75 74
-159 122 -285 163 -43 14 -83 30 -90 36 -7 6 -42 54 -78 107 -67 102 -150 189
-226 238 -25 16 -47 31 -50 34 -11 11 -103 52 -170 76 -136 47 -355 75 -643
81 -310 6 -444 -10 -607 -69 -47 -18 -117 -56 -169 -93 -8 -5 -59 -53 -113
-106 l-98 -97 -73 -5 c-108 -8 -282 -25 -334 -33 -57 -8 -57 -9 33 134 63 97
67 102 100 102 85 0 174 97 174 190 0 38 -24 98 -52 127 -26 28 -42 30 -28 4
17 -33 12 -72 -9 -78 -16 -4 -18 -11 -14 -39 4 -25 1 -40 -13 -55 l-19 -21 -5
28 c-5 29 -30 46 -30 20 0 -8 -10 -22 -22 -30 -25 -18 -44 -8 -59 30 -14 37
18 113 48 114 17 1 40 47 46 95 4 28 13 55 20 60 36 28 47 60 47 138 0 83 -17
127 -50 127 -23 0 -30 78 -30 340 0 155 3 204 16 240 13 37 14 54 5 96 -7 28
-22 61 -34 72 -25 23 -89 53 -109 50 -7 0 -26 -3 -43 -5z m73 -139 c2 -24 -2
-33 -24 -44 -23 -13 -27 -13 -40 5 -28 38 -9 78 36 73 20 -2 26 -9 28 -34z
m-209 -67 c-105 -103 -306 -295 -520 -497 -260 -245 -288 -275 -317 -338 -21
-45 -27 -52 -30 -35 -5 31 50 129 101 183 24 25 79 78 123 119 43 41 124 117
180 170 55 53 129 123 165 156 158 145 256 234 289 261 19 16 45 39 59 52 13
12 26 20 29 17 3 -3 -32 -42 -79 -88z m224 -184 c4 -38 7 -141 7 -230 0 -152
-1 -163 -20 -173 -34 -18 -50 -64 -50 -140 0 -71 11 -108 36 -123 8 -4 14 -23
14 -42 0 -28 -6 -37 -28 -49 -43 -22 -84 -89 -90 -144 -5 -56 12 -103 57 -154
17 -20 31 -38 31 -42 0 -3 -34 -60 -75 -126 -41 -66 -75 -124 -75 -130 0 -14
-30 -27 -80 -35 l-46 -7 -12 179 c-7 98 -17 196 -22 218 -6 26 -5 44 2 52 31
38 -26 149 -94 182 -46 22 -156 41 -237 41 l-51 0 18 35 c9 19 22 35 27 35 11
0 106 102 180 190 20 25 92 104 159 176 66 72 168 181 225 242 57 62 107 112
111 112 4 0 10 -30 13 -67z m-613 -78 c-13 -14 -28 -25 -34 -25 -11 1 40 50
51 50 4 0 -4 -11 -17 -25z m-97 -82 c-149 -144 -338 -294 -463 -368 -36 -21
-77 -49 -92 -63 -16 -14 -28 -21 -28 -16 0 17 22 39 95 94 81 62 158 122 165
131 5 5 108 82 166 124 15 11 39 29 53 41 59 48 137 104 145 104 5 0 -14 -21
-41 -47z m51 -643 c172 -9 216 -21 216 -55 0 -19 -55 -22 -293 -12 -171 7
-201 6 -231 -8 -43 -21 -76 -82 -111 -210 -9 -33 -30 -103 -46 -156 -16 -52
-32 -118 -35 -145 -8 -67 -10 -75 -18 -106 l-8 -27 -506 -3 c-562 -3 -529 1
-580 -72 l-27 -39 -2 -380 c-2 -333 -4 -382 -18 -397 -15 -17 -42 -18 -297
-19 -228 -1 -285 1 -303 13 -33 22 -48 206 -43 521 5 282 8 298 78 358 49 41
123 58 360 83 221 22 760 30 986 14 138 -10 189 -10 216 -1 38 13 72 44 81 76
3 11 31 94 61 184 41 121 56 179 56 219 0 97 20 92 -379 92 -190 0 -395 -4
-456 -9 -60 -5 -162 -12 -225 -16 -106 -6 -113 -6 -100 10 7 9 25 22 39 30 42
21 340 51 611 61 91 4 167 8 170 11 7 7 600 -6 804 -17z m197 -139 c17 -17 29
-40 29 -55 0 -13 4 -27 9 -30 15 -10 29 -277 23 -454 l-2 -53 -167 2 c-103 0
-169 -3 -171 -9 -3 -11 59 -19 236 -28 l123 -6 -2 -317 c-2 -277 -17 -522 -33
-539 -3 -2 -83 -6 -178 -9 -95 -2 -185 -8 -200 -13 -25 -8 -28 -7 -28 14 l0
23 188 5 c103 3 195 9 205 13 18 8 25 75 7 75 -5 0 -10 -6 -11 -12 0 -7 -5 -2
-10 11 -5 14 -8 30 -5 38 3 7 1 15 -4 18 -5 3 -7 47 -5 98 10 270 8 457 -5
457 -6 0 -10 -46 -10 -117 0 -115 -14 -345 -25 -431 -9 -62 -35 -72 -185 -72
-73 0 -120 4 -120 10 0 6 48 10 123 10 67 0 127 4 133 8 14 9 27 62 15 62 -5
0 -16 -10 -25 -22 -15 -21 -16 -21 -11 -3 3 13 -2 25 -15 33 -19 11 -22 10
-32 -19 l-11 -32 -14 26 c-9 18 -18 24 -31 20 -14 -5 -15 -3 -5 7 9 10 10 17
2 27 -16 18 -29 16 -29 -5 0 -10 -5 -23 -11 -29 -16 -16 -1 -35 22 -28 11 4
19 2 19 -4 0 -7 -33 -11 -92 -11 -50 0 -88 3 -85 7 4 3 20 6 37 5 28 -1 30 1
30 39 0 27 -4 39 -14 39 -19 0 -29 -17 -16 -25 17 -11 11 -25 -11 -25 -15 0
-19 5 -15 15 3 8 -1 21 -9 28 -11 11 -11 17 -2 26 9 10 8 15 -5 25 -22 16 -23
26 -3 26 20 0 19 19 -1 27 -9 3 -20 0 -24 -8 -7 -10 -15 -7 -35 16 -20 24 -22
31 -10 33 22 5 18 24 -4 20 -20 -3 -77 49 -66 60 3 4 9 2 13 -4 4 -6 24 -14
45 -17 28 -4 37 -2 37 9 0 8 -6 14 -12 15 -7 0 -33 1 -57 2 -34 2 -47 8 -60
27 -15 23 -15 24 3 17 10 -4 25 -2 32 4 7 6 18 8 24 4 5 -3 10 -1 10 5 0 6
-10 11 -22 10 -13 -1 -25 -1 -28 0 -3 1 -16 4 -30 6 -32 6 -71 44 -52 51 10 4
6 9 -10 17 -30 15 -40 86 -11 86 17 1 17 1 -1 15 -10 8 -15 19 -11 25 4 7 3
15 -2 19 -6 3 -13 31 -16 62 l-7 56 192 7 c105 3 194 8 196 11 15 15 -27 20
-186 23 -97 1 -182 4 -188 7 -8 2 -9 16 -3 47 5 24 14 68 19 98 5 30 16 78 24
105 18 61 46 156 50 170 32 114 48 152 75 172 12 9 82 12 249 13 l234 0 29
-29z m669 -5 c0 -3 -4 -8 -10 -11 -5 -3 -10 -1 -10 4 0 6 5 11 10 11 6 0 10
-2 10 -4z m-2120 -62 c0 -8 -4 -34 -9 -57 -5 -23 -17 -97 -27 -164 -9 -67 -22
-124 -28 -126 -6 -2 -74 -3 -151 -3 -138 1 -140 1 -143 24 -2 13 1 28 6 35 5
7 13 37 17 67 4 30 11 61 15 70 5 8 14 47 20 85 7 39 15 73 17 78 2 4 67 7
144 7 119 0 139 -2 139 -16z m3410 -24 c242 -16 406 -43 515 -83 47 -17 127
-64 200 -118 50 -36 174 -174 210 -234 46 -75 85 -104 170 -124 95 -23 222
-105 270 -173 6 -7 19 -25 30 -38 l20 -25 -20 15 c-11 8 -22 18 -25 21 -27 31
-145 92 -230 119 -51 17 -237 39 -305 37 -16 0 -87 3 -156 8 l-127 8 -21 39
c-12 22 -21 42 -21 44 0 8 123 4 216 -8 99 -12 135 -5 149 30 13 35 -110 188
-212 264 -29 21 -55 38 -58 38 -3 0 -23 11 -45 25 -22 14 -73 32 -113 39 -83
16 -250 32 -287 28 -51 -7 -97 -43 -123 -96 -54 -110 -77 -166 -77 -185 0 -11
-4 -23 -10 -26 -14 -9 -12 -42 3 -52 12 -8 167 -24 412 -42 66 -5 121 -10 122
-10 6 -3 43 -70 43 -78 0 -6 -18 -7 -49 -2 -60 9 -243 26 -371 34 -52 4 -115
8 -140 9 l-45 3 0 -126 c0 -78 -4 -125 -10 -125 -65 10 -256 14 -251 6 3 -5
62 -13 131 -17 l125 -7 -4 -27 c-2 -14 -5 -42 -5 -62 l-1 -35 -52 7 c-92 13
-148 11 -148 -6 0 -12 17 -15 95 -15 80 0 95 -3 95 -16 0 -13 -12 -15 -90 -8
l-90 7 1 -52 c1 -28 -1 -55 -5 -58 -3 -3 -6 10 -6 30 0 21 -4 37 -10 37 -5 0
-10 9 -10 20 0 32 -56 135 -97 179 -21 22 -65 56 -97 76 -52 30 -68 35 -123
35 -141 0 -211 -74 -329 -347 -17 -41 -20 -43 -58 -43 -23 0 -48 5 -56 10 -11
7 2 10 43 10 44 0 57 3 57 15 0 11 -12 15 -42 15 -24 0 -97 5 -163 10 -332 26
-307 22 -288 41 11 11 34 11 366 -7 124 -7 144 -2 133 33 -8 25 -118 40 -351
49 -108 4 -173 10 -177 17 -4 6 -5 13 -4 15 2 2 41 -1 87 -7 46 -6 166 -13
267 -16 161 -6 182 -4 182 9 0 12 -11 16 -50 16 -27 0 -50 5 -50 10 0 6 24 10
54 10 30 0 58 5 61 10 4 6 -13 10 -43 10 -55 0 -62 4 -55 29 4 16 13 18 74 13
48 -3 69 -1 69 7 0 6 -21 12 -52 13 -29 0 -58 2 -64 2 -21 2 -42 26 -48 56 -3
17 -15 43 -27 59 -12 16 -19 33 -15 39 12 20 126 53 236 67 125 16 582 20 657
6 23 -4 47 -5 54 0 7 4 -5 10 -32 13 -81 10 -114 15 -204 33 -198 37 -648 13
-813 -44 -95 -33 -232 -144 -232 -188 0 -8 -4 -15 -10 -15 -15 0 -12 11 14 66
64 132 215 204 491 233 100 10 45 21 -82 16 -296 -12 -566 -34 -641 -52 l-24
-6 21 40 20 40 103 16 c97 16 342 33 418 31 292 -11 509 -27 803 -61 135 -15
139 -15 165 4 15 11 49 62 76 114 40 77 49 104 50 149 1 54 1 55 -38 73 -35
17 -66 19 -292 19 -139 0 -257 -3 -262 -6 -5 -3 -38 -10 -74 -16 -36 -5 -93
-19 -128 -30 -75 -24 -104 -27 -75 -7 98 66 248 114 380 120 138 7 399 5 525
-3z m-597 -162 c14 -11 15 -22 7 -77 -5 -35 -10 -65 -12 -67 -3 -3 -180 8
-376 23 l-62 5 37 34 c38 34 100 73 138 85 38 13 250 10 268 -3z m205 -77 c21
-25 55 -91 50 -97 -5 -4 -149 14 -155 20 -6 5 14 110 25 129 5 11 51 -19 80
-52z m777 -28 c7 -23 16 -66 19 -96 l7 -54 -68 10 c-60 8 -73 14 -108 49 -22
22 -52 45 -67 50 -33 12 -35 19 -8 43 40 36 65 43 139 42 l74 -2 12 -42z m282
-60 c46 -49 83 -91 83 -95 0 -14 -207 -9 -217 5 -13 18 -30 76 -38 130 l-6 47
48 0 c47 0 49 -1 130 -87z m-3519 -202 l172 -1 0 -40 0 -40 -52 -1 c-29 0
-233 0 -453 0 -309 1 -406 -2 -425 -11 -30 -16 -70 -84 -69 -118 0 -14 6 -41
13 -60 11 -29 19 -36 53 -43 23 -4 46 -14 53 -22 9 -11 0 -15 -53 -20 -108
-12 -121 1 -126 125 -4 112 29 179 104 212 28 12 455 28 570 22 22 -1 118 -3
213 -3z m1122 -36 c0 -8 -4 -15 -10 -15 -5 0 -10 7 -10 15 0 8 5 15 10 15 6 0
10 -7 10 -15z m1820 -6 c30 -5 127 -16 215 -25 88 -8 172 -17 188 -18 15 -2
29 -5 31 -7 3 -4 16 -183 20 -282 0 -20 -3 -38 -9 -38 -5 -1 -122 2 -260 6
-137 5 -268 9 -290 9 -32 1 -40 5 -40 20 0 17 9 18 120 16 66 -1 196 -5 288
-9 93 -3 171 -3 174 2 2 4 -6 7 -19 8 -13 0 -48 2 -78 4 -182 14 -370 25 -426
25 l-64 0 0 155 0 155 48 -6 c26 -3 72 -10 102 -15z m578 -49 c102 0 456 -57
502 -81 8 -5 33 -16 55 -25 70 -30 185 -132 185 -163 0 -6 4 -11 9 -11 10 0
37 -89 32 -110 -2 -8 -6 -17 -10 -20 -20 -14 -41 -58 -41 -87 0 -18 -4 -33
-10 -33 -5 0 -7 13 -4 29 6 26 3 30 -22 34 -28 4 -28 4 4 6 24 1 32 6 32 20 0
24 -19 31 -82 31 l-51 0 7 -70 c4 -38 5 -70 2 -70 -2 0 -12 33 -21 73 -30 131
-128 243 -229 262 -68 13 -119 -2 -165 -48 -23 -23 -49 -55 -57 -72 -9 -16
-31 -59 -50 -95 -44 -86 -70 -124 -78 -112 -3 5 6 31 19 58 14 27 25 63 25 80
0 16 5 35 12 42 18 18 6 23 -78 33 -43 6 -81 12 -83 15 -15 15 24 21 94 14 59
-5 84 -4 94 5 11 11 -3 14 -75 20 -49 3 -94 8 -100 10 -6 2 -14 48 -18 114 -3
60 -9 124 -12 141 -6 30 -6 30 20 20 15 -5 57 -10 94 -10z m-1923 -23 c-24
-24 -35 -46 -40 -80 -10 -68 -29 -60 -22 9 6 55 22 83 57 97 35 13 36 5 5 -26z
m-1425 -7 c0 -41 10 -40 -444 -34 -237 3 -441 7 -453 10 -46 9 -21 23 45 26
148 8 852 5 852 -2z m1553 -32 c21 -28 19 -78 -6 -111 -17 -24 -83 -25 -105
-3 -26 26 -21 104 8 128 32 26 78 20 103 -14z m-503 7 c0 -9 9 -42 20 -75 11
-33 21 -68 23 -77 1 -10 5 -22 9 -28 3 -5 9 -26 12 -45 4 -19 11 -44 16 -55 4
-11 27 -78 49 -150 23 -71 46 -139 51 -150 18 -42 21 -75 6 -75 -8 0 -16 6
-19 13 -3 9 -7 9 -20 -1 -26 -22 -44 1 -26 33 22 37 17 43 -16 22 -19 -12 -34
-26 -35 -31 0 -5 7 -2 16 5 14 11 15 10 12 -11 -3 -22 -8 -25 -56 -28 -60 -3
-58 -5 -71 88 -5 36 -17 99 -25 140 -23 112 -24 115 -45 250 -19 117 -25 165
-22 183 1 4 28 7 61 7 47 0 60 -3 60 -15z m-1062 -44 c1 -1 2 -8 2 -17 0 -14
-35 -15 -332 -11 -183 3 -368 2 -411 -2 -97 -8 -189 0 -194 16 -3 9 35 13 154
16 120 3 766 1 781 -2z m0 -60 c2 0 1 -5 -3 -10 -3 -6 -15 -7 -28 -4 -12 2
-137 8 -277 11 -141 4 -226 9 -190 12 51 4 485 -4 498 -9z m-91 -53 c-3 -8 -6
-5 -6 6 -1 11 2 17 5 13 3 -3 4 -12 1 -19z m-252 -38 c33 -6 116 -17 185 -25
123 -15 143 -20 228 -57 83 -37 153 -136 201 -287 33 -103 24 -114 -17 -20
-40 93 -55 118 -98 165 -35 38 -124 89 -179 103 -22 5 -58 15 -80 20 -22 6
-86 11 -141 11 -96 0 -105 -2 -170 -35 -38 -19 -93 -55 -122 -81 l-53 -47 15
39 c16 40 100 124 123 124 13 0 17 12 8 21 -9 9 -147 -10 -161 -22 -8 -7 -35
-13 -59 -13 -34 -1 -44 -5 -42 -16 3 -24 -41 -12 -84 22 -29 23 -50 31 -95 35
-56 5 -61 3 -95 -29 -20 -18 -39 -43 -43 -56 -4 -12 -12 -22 -17 -22 -13 0
-11 12 11 58 31 63 99 89 181 68 41 -11 49 -11 49 0 0 8 -9 14 -19 14 -11 0
-22 4 -25 8 -3 5 21 8 52 8 31 0 86 5 122 11 86 14 250 15 325 3z m2252 -22
c-3 -8 -6 -5 -6 6 -1 11 2 17 5 13 3 -3 4 -12 1 -19z m-3742 0 c18 -18 -10
-27 -68 -21 -70 6 -113 -9 -141 -49 -16 -22 -16 -22 -16 -1 0 30 30 61 68 70
39 10 148 11 157 1z m3961 -50 c52 -56 67 -101 62 -189 -4 -65 -9 -84 -31
-112 -46 -61 -56 -67 -104 -67 -39 0 -50 5 -77 33 -31 33 -66 122 -66 167 0
57 33 140 67 170 49 43 108 42 149 -2z m1509 22 c3 -5 -1 -10 -10 -10 -9 0
-13 5 -10 10 3 6 8 10 10 10 2 0 7 -4 10 -10z m-825 -30 c52 -5 166 -10 253
-10 116 -1 157 -5 154 -13 -5 -15 -292 -16 -474 -3 -93 7 -123 12 -123 22 0
17 51 18 190 4z m-963 -32 c-3 -8 -6 -5 -6 6 -1 11 2 17 5 13 3 -3 4 -12 1
-19z m-3718 -14 c43 -36 39 -49 -5 -19 -42 28 -85 32 -104 10 -7 -9 -15 -13
-18 -10 -3 3 3 14 13 25 26 29 76 26 114 -6z m1030 8 c19 -9 43 -28 53 -42 39
-54 35 -170 -8 -218 l-25 -27 21 42 c48 100 4 213 -92 237 -16 3 -28 11 -28
16 0 15 41 11 79 -8z m4215 9 c11 -4 15 -10 10 -12 -15 -9 -114 2 -114 12 0
11 77 11 104 0z m-801 -32 c-4 -14 -8 -17 -13 -9 -5 8 -30 12 -64 12 -31 0
-58 4 -62 9 -3 5 27 9 69 9 71 0 75 -1 70 -21z m-2712 -3 c166 -23 250 -69
322 -179 41 -62 94 -193 106 -262 27 -147 40 -203 54 -236 13 -33 21 -38 67
-48 28 -6 133 -11 233 -11 184 0 207 -4 207 -37 0 -16 -363 -18 -424 -2 -22 6
-60 29 -86 51 l-47 41 -23 131 c-26 152 -39 194 -88 294 -28 57 -47 81 -90
113 -86 65 -138 79 -299 79 -153 0 -191 -11 -250 -72 -31 -33 -88 -138 -114
-210 -10 -28 -19 -38 -35 -38 l-21 0 24 73 c45 137 75 183 184 272 24 21 66
40 104 48 36 8 69 7 176 -7z m3029 4 c10 -7 -17 -10 -85 -10 -55 0 -107 5
-115 10 -10 7 17 10 85 10 55 0 107 -5 115 -10z m827 -12 c58 -62 67 -171 24
-261 -39 -80 -101 -95 -154 -39 -26 28 -57 107 -57 146 0 40 31 122 57 150 32
35 99 37 130 4z m-1867 2 c0 -5 -2 -10 -4 -10 -3 0 -8 5 -11 10 -3 6 -1 10 4
10 6 0 11 -4 11 -10z m1275 0 c51 -6 41 -7 -65 -8 -69 -1 -132 3 -140 8 -18
12 113 12 205 0z m-5013 -33 c28 -35 24 -118 -7 -151 -13 -14 -30 -26 -37 -26
-25 0 -56 30 -68 65 -13 39 0 95 28 128 20 23 60 15 84 -16z m5235 26 c-20 -2
-52 -2 -70 0 -17 2 0 4 38 4 39 0 53 -2 32 -4z m-802 -13 c4 -6 -7 -10 -24
-10 -17 0 -31 5 -31 10 0 6 11 10 24 10 14 0 28 -4 31 -10z m-3417 -11 c37
-13 57 -62 47 -116 -15 -84 -108 -113 -160 -51 -23 27 -26 39 -22 72 7 50 36
89 73 97 16 4 29 7 30 8 1 0 15 -4 32 -10z m2430 -6 c-16 -2 -40 -2 -55 0 -16
2 -3 4 27 4 30 0 43 -2 28 -4z m282 -8 c0 -8 -4 -15 -9 -15 -13 0 -22 16 -14
24 11 11 23 6 23 -9z m590 -56 c0 -27 12 -36 44 -30 4 1 32 -5 61 -14 43 -12
121 -15 422 -15 333 -1 364 -2 328 -15 -32 -12 -108 -15 -370 -15 -353 0 -466
11 -492 46 -15 21 -18 88 -3 79 6 -3 10 -19 10 -36z m-2120 21 c0 -5 -4 -10
-10 -10 -5 0 -10 5 -10 10 0 6 5 10 10 10 6 0 10 -4 10 -10z m3916 -7 c10 -15
10 -21 -3 -35 -26 -29 -53 -23 -53 10 0 16 3 32 7 35 12 13 36 7 49 -10z
m-2389 -16 c-6 -20 -27 -19 -27 2 0 14 5 19 15 14 9 -3 14 -10 12 -16z m2013
-27 c0 -5 -5 -10 -11 -10 -5 0 -7 5 -4 10 3 6 8 10 11 10 2 0 4 -4 4 -10z
m-390 -15 c0 -8 -4 -15 -10 -15 -5 0 -10 7 -10 15 0 8 5 15 10 15 6 0 10 -7
10 -15z m-1620 -15 c0 -21 -15 -27 -25 -10 -7 12 2 30 16 30 5 0 9 -9 9 -20z
m10 -51 c0 -11 -4 -17 -10 -14 -5 3 -10 13 -10 21 0 8 5 14 10 14 6 0 10 -9
10 -21z m-337 -66 c18 3 52 11 76 18 41 11 45 11 62 -12 35 -45 28 -49 -95
-49 -63 0 -120 -2 -128 -5 -21 -8 -45 16 -53 53 l-7 32 57 -21 c34 -13 69 -19
88 -16z m367 -10 c-1 -24 -2 -26 -11 -10 -5 9 -7 22 -4 27 10 17 15 11 15 -17z
m1373 13 c65 2 69 1 80 -25 6 -14 17 -33 24 -42 12 -14 11 -18 -4 -23 -10 -4
-154 -2 -321 5 l-303 13 33 33 34 33 172 4 c95 2 175 6 179 9 3 4 13 3 22 -2
9 -4 47 -6 84 -5z m-3515 -29 c23 -64 12 -84 -28 -50 -22 19 -27 68 -7 76 21
9 23 8 35 -26z m51 11 c8 -20 10 -21 16 -5 5 11 18 17 39 17 20 0 27 -3 18 -9
-11 -6 -10 -11 3 -24 16 -16 13 -37 -5 -37 -5 0 -16 12 -24 28 -15 26 -15 26
-16 4 -1 -52 -60 -33 -60 19 0 34 17 38 29 7z m2566 -9 c4 -10 11 -19 16 -19
6 0 7 -5 4 -10 -8 -13 -133 -11 -142 3 -3 5 0 19 6 30 10 19 19 22 61 19 38
-3 51 -8 55 -23z m1122 -1 c-3 -8 -6 -5 -6 6 -1 11 2 17 5 13 3 -3 4 -12 1
-19z m-3554 6 c9 -10 -12 -46 -24 -39 -14 9 -11 45 4 45 8 0 17 -3 20 -6z
m-250 -40 c12 -16 17 -34 13 -50 -8 -32 -17 -30 -45 11 -37 55 -7 93 32 39z
m297 12 c0 -2 -7 -17 -15 -32 l-15 -29 0 33 c0 22 5 32 15 32 8 0 15 -2 15 -4z
m40 -46 c0 -19 -5 -30 -14 -30 -23 0 -27 15 -10 38 20 29 24 28 24 -8z m1930
20 c0 -5 -5 -10 -11 -10 -5 0 -7 5 -4 10 3 6 8 10 11 10 2 0 4 -4 4 -10z
m-2320 -56 c15 -24 19 -39 12 -46 -16 -16 -45 -5 -61 24 -13 22 -13 29 -2 42
19 23 27 20 51 -20z m2000 11 c124 -3 299 -8 390 -10 91 -3 300 -7 465 -11
165 -3 302 -8 305 -10 2 -3 -1 -13 -7 -22 -7 -9 -22 -35 -33 -57 -12 -22 -32
-51 -43 -64 l-22 -23 -220 6 c-121 3 -422 9 -670 12 -247 4 -517 9 -600 13
l-150 6 -3 74 c-2 41 -1 80 2 88 5 11 37 13 183 9 98 -3 279 -8 403 -11z
m1446 -61 c29 -7 30 -12 7 -30 -35 -27 -63 -12 -63 33 0 10 6 13 16 9 9 -3 27
-9 40 -12z m682 0 c17 -3 32 -9 32 -14 0 -6 5 -10 10 -10 14 0 343 -209 352
-223 12 -19 -2 -27 -45 -26 -23 1 -32 4 -19 6 29 6 28 21 -2 29 -13 3 -26 14
-29 25 -3 12 -11 17 -21 13 -10 -4 -18 0 -22 10 -5 13 -9 14 -20 5 -11 -9 -14
-8 -14 5 0 9 -5 16 -11 16 -5 0 -8 -4 -5 -8 2 -4 1 -14 -4 -22 -7 -12 -12 -11
-29 4 -18 16 -21 17 -21 3 0 -8 -6 -18 -12 -21 -7 -3 -1 -4 13 -1 14 2 35 -2
47 -11 20 -14 22 -14 22 0 0 28 20 17 21 -11 1 -17 3 -21 6 -10 2 9 11 17 19
17 8 0 13 -4 10 -9 -3 -5 1 -12 10 -15 10 -4 13 -13 9 -26 -5 -17 -2 -20 22
-21 15 -1 38 0 51 1 18 1 22 -4 22 -29 0 -17 -2 -31 -4 -31 -8 0 -90 37 -206
93 -260 125 -213 112 -412 115 l-176 3 -18 37 c-9 20 -28 54 -41 74 -12 21
-23 40 -23 43 0 6 440 -4 488 -11z m-778 -4 c0 -5 -5 -10 -11 -10 -5 0 -7 5
-4 10 3 6 8 10 11 10 2 0 4 -4 4 -10z m-3750 -19 l115 -6 3 -40 c6 -66 -8
-164 -26 -181 -13 -14 -29 -15 -92 -10 -41 4 -183 9 -315 11 -342 6 -1017 25
-1023 30 -6 5 -4 194 3 205 5 9 155 10 614 4 333 -4 658 -10 721 -13z m345 -3
c31 -21 31 -22 13 -40 -10 -10 -22 -18 -27 -18 -12 0 -41 46 -41 65 0 21 18
19 55 -7z m3350 13 c3 -6 -3 -15 -14 -20 -14 -8 -22 -7 -30 3 -10 11 -8 15 6
19 29 8 32 7 38 -2z m-2998 -37 c84 -63 118 -149 116 -294 -1 -118 -21 -179
-74 -231 -68 -67 -166 -84 -226 -41 -69 49 -123 178 -123 295 0 153 60 262
165 298 34 12 108 -2 142 -27z m3213 17 c0 -12 -50 -44 -58 -36 -4 3 4 15 18
25 27 21 40 25 40 11z m-3070 -21 c0 -5 -4 -10 -10 -10 -5 0 -10 5 -10 10 0 6
5 10 10 10 6 0 10 -4 10 -10z m2785 0 c11 -17 -5 -32 -21 -19 -8 6 -14 15 -14
20 0 12 27 11 35 -1z m-2095 -10 c0 -6 -62 -10 -165 -10 -103 0 -165 4 -165
10 0 6 62 10 165 10 103 0 165 -4 165 -10z m2410 -19 c0 -18 -27 -37 -38 -26
-5 4 26 45 35 45 1 0 3 -9 3 -19z m-3630 -26 c22 -22 30 -39 24 -45 -13 -13
-74 36 -74 61 0 27 11 24 50 -16z m3280 5 c0 -5 -5 -10 -11 -10 -5 0 -7 5 -4
10 3 6 8 10 11 10 2 0 4 -4 4 -10z m-2123 -16 c-3 -3 -12 -4 -19 -1 -8 3 -5 6
6 6 11 1 17 -2 13 -5z m46 -1 c-7 -2 -19 -2 -25 0 -7 3 -2 5 12 5 14 0 19 -2
13 -5z m2475 -11 c4 -12 -45 -28 -55 -18 -8 8 28 36 41 33 6 -2 11 -8 14 -15z
m-428 -27 c0 -8 -4 -15 -9 -15 -13 0 -22 16 -14 24 11 11 23 6 23 -9z m278
-33 c55 -54 68 -87 78 -192 5 -53 2 -76 -16 -124 -33 -86 -73 -125 -136 -133
-66 -7 -86 5 -132 75 -33 53 -36 64 -40 147 -7 166 55 274 160 275 31 0 45 -8
86 -48z m-3560 18 c12 -11 26 -20 32 -20 5 0 9 -10 9 -22 -1 -15 -3 -17 -6 -7
-2 10 -14 17 -30 17 -25 0 -43 16 -43 40 0 18 13 15 38 -8z m3716 -14 c-7 -17
-34 -23 -34 -6 0 9 32 31 38 26 1 -2 0 -11 -4 -20z m-2769 -16 c3 -5 -1 -10
-10 -10 -9 0 -13 5 -10 10 3 6 8 10 10 10 2 0 7 -4 10 -10z m224 -6 c2 -2 -32
-4 -77 -4 -44 0 -84 4 -87 10 -6 9 155 4 164 -6z m2081 -10 c0 -22 -2 -25 -15
-14 -8 7 -15 19 -15 26 0 8 7 14 15 14 10 0 15 -10 15 -26z m488 -26 c-6 -18
-28 -21 -28 -4 0 9 7 16 16 16 9 0 14 -5 12 -12z m-3758 -7 c0 -5 11 -12 25
-15 14 -4 25 -14 25 -22 0 -13 -6 -15 -27 -9 -28 7 -55 34 -47 47 7 11 24 10
24 -1z m3238 -19 c2 -12 8 -22 14 -22 6 0 6 -6 -2 -15 -11 -13 -14 -12 -26 11
-8 14 -14 33 -14 41 0 23 25 9 28 -15z m-1718 -18 c0 -8 -5 -12 -10 -9 -6 4
-8 11 -5 16 9 14 15 11 15 -7z m1657 -56 c-3 -7 -5 -2 -5 12 0 14 2 19 5 13 2
-7 2 -19 0 -25z m63 -35 c0 -18 -13 -16 -30 5 -9 9 -14 26 -12 36 4 18 5 18
23 -5 10 -13 19 -30 19 -36z m-3202 9 c8 -7 11 -16 8 -20 -4 -3 -11 0 -16 8
-7 11 -12 11 -23 2 -11 -10 -17 -9 -27 3 -7 8 -10 22 -6 30 5 13 9 13 28 3 12
-7 29 -19 36 -26z m3079 1 c-3 -10 -5 -4 -5 12 0 17 2 24 5 18 2 -7 2 -21 0
-30z m-3157 17 c0 -5 -2 -10 -4 -10 -3 0 -8 5 -11 10 -3 6 -1 10 4 10 6 0 11
-4 11 -10z m3127 -12 c-3 -8 -6 -5 -6 6 -1 11 2 17 5 13 3 -3 4 -12 1 -19z
m673 -18 c0 -5 -4 -10 -10 -10 -5 0 -10 5 -10 10 0 6 5 10 10 10 6 0 10 -4 10
-10z m-713 -32 c-3 -7 -5 -2 -5 12 0 14 2 19 5 13 2 -7 2 -19 0 -25z m-3337
12 c0 -6 -40 -10 -99 -10 -56 0 -103 4 -106 10 -4 6 32 10 99 10 64 0 106 -4
106 -10z m2020 -37 c31 -124 67 -192 122 -233 31 -23 31 -23 10 -31 -20 -8
-309 -10 -1005 -9 l-268 0 39 53 c51 70 76 128 87 201 l7 46 70 0 c45 0 80 -6
101 -17 40 -20 177 -27 347 -16 116 7 126 10 135 31 10 22 13 22 176 22 l166
0 13 -47z m1377 5 c-3 -8 -6 -5 -6 6 -1 11 2 17 5 13 3 -3 4 -12 1 -19z m33 2
c0 -11 -4 -20 -10 -20 -5 0 -10 9 -10 20 0 11 5 20 10 20 6 0 10 -9 10 -20z
m-4346 4 c9 -3 16 -17 16 -31 0 -21 -3 -23 -14 -14 -11 9 -15 9 -19 -1 -7 -17
-27 9 -27 35 0 17 16 22 44 11z m1166 -9 c0 -8 -4 -15 -10 -15 -5 0 -10 7 -10
15 0 8 5 15 10 15 6 0 10 -7 10 -15z m3285 -6 c10 -30 0 -34 -24 -10 -26 26
-26 31 -2 31 11 0 23 -9 26 -21z m-3217 -20 c2 -17 0 -20 -6 -10 -6 7 -15 10
-21 7 -13 -8 -14 -4 -5 19 9 22 28 13 32 -16z m44 -43 c-6 -11 -20 20 -21 44
0 8 5 4 13 -10 7 -14 10 -29 8 -34z m-1216 -1 c10 -29 9 -35 -2 -35 -8 0 -14
8 -14 18 0 9 -3 28 -7 42 -9 36 8 16 23 -25z m4171 3 c-3 -8 -6 -5 -6 6 -1 11
2 17 5 13 3 -3 4 -12 1 -19z m56 2 c3 -11 1 -18 -4 -14 -5 3 -9 12 -9 20 0 20
7 17 13 -6z m61 5 c3 -9 0 -15 -9 -15 -8 0 -15 7 -15 15 0 8 4 15 9 15 5 0 11
-7 15 -15z m-4427 -27 c-3 -7 -5 -2 -5 12 0 14 2 19 5 13 2 -7 2 -19 0 -25z
m51 -1 c4 -29 -12 -37 -22 -11 -10 26 -7 46 7 42 6 -3 13 -17 15 -31z m1128 6
c-10 -10 -19 5 -10 18 6 11 8 11 12 0 2 -7 1 -15 -2 -18z m101 -20 c-3 -10 -5
-2 -5 17 0 19 2 27 5 18 2 -10 2 -26 0 -35z m3180 10 c-3 -10 -5 -4 -5 12 0
17 2 24 5 18 2 -7 2 -21 0 -30z m-4377 8 c0 -11 -4 -23 -10 -26 -6 -4 -10 5
-10 19 0 14 5 26 10 26 6 0 10 -9 10 -19z m30 -7 c0 -8 -4 -14 -10 -14 -5 0
-10 9 -10 21 0 11 5 17 10 14 6 -3 10 -13 10 -21z m1100 10 c0 -8 -5 -12 -10
-9 -6 4 -8 11 -5 16 9 14 15 11 15 -7z m37 -16 c-3 -7 -5 -2 -5 12 0 14 2 19
5 13 2 -7 2 -19 0 -25z m2923 1 c4 -8 17 -35 29 -62 11 -26 39 -67 62 -92 l41
-45 -203 6 c-112 3 -233 7 -269 9 -36 2 -89 4 -119 4 l-55 1 26 28 c26 27 58
82 78 136 l11 29 37 -35 c51 -49 72 -58 136 -58 66 0 130 26 171 69 30 32 44
35 55 10z m380 5 c0 -14 -3 -14 -15 -4 -8 7 -15 14 -15 16 0 2 7 4 15 4 8 0
15 -7 15 -16z m-3220 -30 c0 -19 -16 -18 -24 2 -11 27 -7 37 9 24 8 -7 15 -19
15 -26z m-247 17 c4 -1 7 -6 7 -13 0 -15 58 -106 92 -143 15 -16 26 -31 24
-32 -5 -5 -619 -4 -623 1 -2 1 12 20 32 41 19 21 44 62 56 91 18 42 27 54 48
56 21 3 334 2 364 -1z m-1093 -17 c0 -8 -4 -12 -10 -9 -5 3 -10 10 -10 16 0 5
5 9 10 9 6 0 10 -7 10 -16z m4497 -21 c-3 -10 -5 -4 -5 12 0 17 2 24 5 18 2
-7 2 -21 0 -30z m-82 8 c3 -5 1 -12 -5 -16 -5 -3 -10 1 -10 9 0 18 6 21 15 7z
m-4375 -16 c0 -8 -2 -15 -4 -15 -2 0 -6 7 -10 15 -3 8 -1 15 4 15 6 0 10 -7
10 -15z m27 -7 c-3 -8 -6 -5 -6 6 -1 11 2 17 5 13 3 -3 4 -12 1 -19z m49 -25
c-8 -8 -12 -3 -21 27 l-7 25 17 -23 c9 -13 14 -26 11 -29z m54 32 c0 -8 -2
-15 -4 -15 -2 0 -6 7 -10 15 -3 8 -1 15 4 15 6 0 10 -7 10 -15z m1057 -11 c2
-13 1 -15 -4 -4 -3 8 -11 19 -17 23 -7 6 -6 7 4 4 8 -2 16 -12 17 -23z m3353
-1 c0 -20 -24 -11 -28 10 -2 12 1 15 12 11 9 -3 16 -13 16 -21z m-3293 -5 c-3
-8 -6 -5 -6 6 -1 11 2 17 5 13 3 -3 4 -12 1 -19z m30 -10 c-3 -8 -6 -5 -6 6
-1 11 2 17 5 13 3 -3 4 -12 1 -19z m197 -143 c3 -8 1 -15 -4 -15 -6 0 -10 7
-10 15 0 8 2 15 4 15 2 0 6 -7 10 -15z"/>
<path d="M1718 5651 c-41 -5 -64 -13 -80 -29 -23 -23 -23 -23 -24 -366 0 -189
3 -353 7 -365 8 -20 14 -20 281 -18 l273 2 3 325 c3 475 10 462 -245 458 -87
-1 -184 -4 -215 -7z m381 -65 c7 -8 10 -19 7 -24 -7 -11 -433 -16 -439 -5 -10
16 7 31 38 35 17 1 109 5 206 6 149 3 177 1 188 -12z m-51 -367 c-2 -198 -6
-271 -15 -281 -10 -10 -13 45 -13 275 0 255 2 286 16 280 13 -5 15 -38 12
-274z m-312 144 c-5 -65 -10 -190 -12 -278 -3 -149 -5 -160 -23 -163 -19 -3
-19 2 -16 90 2 51 4 177 4 281 l1 187 27 0 26 0 -7 -117z m102 35 c1 -46 1
-123 0 -173 -2 -212 0 -271 6 -285 4 -11 0 -16 -14 -17 -20 -2 -20 4 -21 240
0 133 -4 251 -8 262 -11 28 -2 55 19 55 15 0 18 -11 18 -82z m113 59 c-5 -13
-7 -137 -5 -275 3 -150 0 -253 -5 -256 -18 -11 -20 28 -18 292 2 241 3 262 19
262 14 0 16 -4 9 -23z"/>
<path d="M3570 6273 c-25 -30 -39 -60 -51 -105 -35 -142 -77 -335 -78 -365 -1
-10 63 -13 289 -13 265 0 290 1 299 18 10 19 8 232 -4 353 -4 48 -14 84 -25
100 -19 24 -20 24 -217 27 -182 3 -200 2 -213 -15z"/>
<path d="M3881 5621 c-26 -48 18 -71 136 -71 57 0 77 17 66 58 -4 18 -13 22
-47 22 -22 0 -64 3 -92 6 -46 6 -53 4 -63 -15z"/>
<path d="M3778 5563 c7 -3 16 -2 19 1 4 3 -2 6 -13 5 -11 0 -14 -3 -6 -6z"/>
<path d="M3605 5520 c-3 -5 -1 -10 4 -10 6 0 11 5 11 10 0 6 -2 10 -4 10 -3 0
-8 -4 -11 -10z"/>
<path d="M3650 5510 c0 -5 4 -10 9 -10 6 0 13 5 16 10 3 6 -1 10 -9 10 -9 0
-16 -4 -16 -10z"/>
<path d="M3528 5503 c7 -3 16 -2 19 1 4 3 -2 6 -13 5 -11 0 -14 -3 -6 -6z"/>
<path d="M3480 5459 c0 -5 5 -7 10 -4 6 3 10 8 10 11 0 2 -4 4 -10 4 -5 0 -10
-5 -10 -11z"/>
<path d="M3550 5460 c0 -5 5 -10 10 -10 6 0 10 5 10 10 0 6 -4 10 -10 10 -5 0
-10 -4 -10 -10z"/>
<path d="M3648 5443 c7 -3 16 -2 19 1 4 3 -2 6 -13 5 -11 0 -14 -3 -6 -6z"/>
<path d="M3480 5413 c0 -15 18 -35 27 -32 5 2 1 12 -9 22 -10 9 -18 14 -18 10z"/>
<path d="M3572 5394 c-7 -8 -8 -14 -3 -14 10 0 25 19 20 25 -2 1 -10 -3 -17
-11z"/>
<path d="M3646 5392 c-2 -4 4 -8 14 -8 10 0 16 4 14 8 -3 4 -9 8 -14 8 -5 0
-11 -4 -14 -8z"/>
<path d="M3580 5334 c0 -9 5 -14 12 -12 18 6 21 28 4 28 -9 0 -16 -7 -16 -16z"/>
<path d="M3643 5335 c5 -14 29 -13 34 2 3 7 -4 11 -16 10 -12 -1 -20 -6 -18
-12z"/>
<path d="M3653 5283 c-15 -6 -17 -33 -3 -33 5 0 14 9 20 20 11 20 6 23 -17 13z"/>
<path d="M3636 5213 c-9 -9 -7 -33 3 -33 12 0 22 28 12 34 -5 3 -11 3 -15 -1z"/>
<path d="M3770 5200 c0 -5 4 -10 9 -10 6 0 13 5 16 10 3 6 -1 10 -9 10 -9 0
-16 -4 -16 -10z"/>
<path d="M3845 5200 c-3 -5 1 -10 9 -10 9 0 16 5 16 10 0 6 -4 10 -9 10 -6 0
-13 -4 -16 -10z"/>
<path d="M3710 5146 c0 -9 7 -16 16 -16 17 0 14 22 -4 28 -7 2 -12 -3 -12 -12z"/>
<path d="M3766 5153 c-3 -3 -3 -10 0 -14 7 -12 34 -11 34 0 0 11 -26 22 -34
14z"/>
<path d="M3827 5147 c-3 -8 3 -13 15 -14 10 -1 18 3 16 9 -6 18 -25 21 -31 5z"/>
<path d="M3900 5141 c-16 -30 -12 -36 10 -16 21 19 26 35 10 35 -5 0 -14 -9
-20 -19z"/>
<path d="M3950 5130 c0 -13 11 -13 30 0 12 8 11 10 -7 10 -13 0 -23 -4 -23
-10z"/>
<path d="M3707 5085 c6 -18 34 -16 41 3 2 7 -6 12 -22 12 -19 0 -24 -4 -19
-15z"/>
<path d="M3770 5085 c0 -8 4 -15 9 -15 5 0 11 7 15 15 3 9 0 15 -9 15 -8 0
-15 -7 -15 -15z"/>
<path d="M3840 5085 c0 -8 5 -15 10 -15 6 0 10 7 10 15 0 8 -4 15 -10 15 -5 0
-10 -7 -10 -15z"/>
<path d="M3883 5088 c-13 -18 -15 -68 -2 -68 11 0 44 29 35 31 -3 1 -10 2 -15
3 -22 3 -20 14 4 20 14 4 25 11 25 16 0 14 -36 12 -47 -2z"/>
<path d="M3956 5093 c-11 -11 -6 -23 9 -23 8 0 15 4 15 9 0 13 -16 22 -24 14z"/>
<path d="M3770 5041 c0 -11 -4 -23 -10 -26 -17 -10 -11 -25 9 -25 19 0 37 42
26 60 -10 17 -25 11 -25 -9z"/>
<path d="M5078 5503 c7 -3 16 -2 19 1 4 3 -2 6 -13 5 -11 0 -14 -3 -6 -6z"/>
<path d="M5148 5503 c7 -3 16 -2 19 1 4 3 -2 6 -13 5 -11 0 -14 -3 -6 -6z"/>
<path d="M5710 5367 c0 -12 18 -16 98 -19 53 -2 101 -2 107 1 15 8 -43 20
-127 27 -67 6 -78 5 -78 -9z"/>
<path d="M6030 5420 c0 -5 5 -10 10 -10 6 0 10 5 10 10 0 6 -4 10 -10 10 -5 0
-10 -4 -10 -10z"/>
<path d="M6074 5419 c-3 -5 32 -9 78 -8 95 1 93 5 -5 12 -37 3 -70 1 -73 -4z"/>
<path d="M6424 5395 c90 -13 118 -13 105 -1 -2 3 -49 7 -104 10 l-100 5 99
-14z"/>
<path d="M6621 5386 c7 -8 118 -10 126 -3 3 4 -24 7 -62 7 -38 0 -66 -2 -64
-4z"/>
<path d="M6760 5379 c0 -5 11 -9 25 -9 14 0 25 2 25 4 0 2 -11 6 -25 8 -14 3
-25 1 -25 -3z"/>
<path d="M7255 5309 c47 -15 123 -15 136 -1 10 10 -5 12 -76 11 -71 -1 -84 -3
-60 -10z"/>
<path d="M7272 5273 c-31 -12 6 -23 76 -23 57 0 73 3 64 12 -11 11 -116 20
-140 11z"/>
<path d="M7283 5218 c2 -9 25 -13 67 -13 42 0 65 4 68 13 3 9 -15 12 -68 12
-53 0 -71 -3 -67 -12z"/>
<path d="M4320 5520 c0 -5 5 -10 10 -10 6 0 10 5 10 10 0 6 -4 10 -10 10 -5 0
-10 -4 -10 -10z"/>
<path d="M4360 5500 c-8 -5 -11 -12 -7 -16 4 -4 15 0 24 9 18 18 8 23 -17 7z"/>
<path d="M4355 5420 c10 -11 20 -18 23 -16 5 6 -23 36 -34 36 -4 0 1 -9 11
-20z"/>
<path d="M4355 5379 c-4 -6 -5 -12 -2 -15 2 -3 7 2 10 11 7 17 1 20 -8 4z"/>
<path d="M4370 5320 c-9 -6 -10 -10 -3 -10 6 0 15 5 18 10 8 12 4 12 -15 0z"/>
<path d="M4379 5280 c-13 -10 -19 -19 -12 -20 6 0 15 5 18 10 4 6 10 8 15 5 4
-3 13 2 20 10 19 23 -12 19 -41 -5z"/>
<path d="M4396 5241 c-8 -12 3 -41 15 -41 13 0 11 18 -3 23 -8 3 -5 6 5 6 10
1 15 6 12 11 -8 12 -22 13 -29 1z"/>
<path d="M4390 5176 c0 -19 26 -22 36 -3 4 6 4 9 -1 5 -4 -4 -14 -3 -22 3 -10
9 -13 8 -13 -5z"/>
<path d="M4422 5145 c-13 -7 -19 -16 -14 -19 15 -9 42 4 42 20 0 8 -1 14 -2
13 -2 -1 -14 -7 -26 -14z"/>
<path d="M4400 5098 c0 -4 7 -8 15 -8 18 0 18 -5 5 -31 -14 -26 -2 -24 21 4
l18 22 1 -25 c1 -22 2 -23 11 -7 8 13 7 22 -1 31 -12 16 -70 27 -70 14z"/>
<path d="M4400 5015 c0 -9 9 -15 24 -15 13 0 31 -3 39 -6 8 -3 17 2 21 12 8
22 -1 31 -16 16 -15 -15 -48 -16 -48 -2 0 6 -4 10 -10 10 -5 0 -10 -7 -10 -15z"/>
<path d="M4446 4971 c-4 -7 -5 -15 -2 -18 9 -9 19 4 14 18 -4 11 -6 11 -12 0z"/>
<path d="M4435 4920 c-3 -5 -1 -10 4 -10 6 0 11 5 11 10 0 6 -2 10 -4 10 -3 0
-8 -4 -11 -10z"/>
<path d="M5326 5229 c-33 -39 -39 -65 -34 -142 4 -69 26 -109 70 -127 43 -19
81 10 105 79 24 70 11 144 -35 194 -35 37 -73 36 -106 -4z"/>
<path d="M6936 5150 c-62 -74 -38 -229 36 -238 32 -4 74 44 84 93 15 81 -25
175 -75 175 -10 0 -31 -14 -45 -30z m64 -5 c14 -16 10 -18 -14 -9 -9 3 -16 10
-16 15 0 14 16 11 30 -6z m40 -109 c0 -11 -5 -28 -10 -36 -7 -11 -10 -6 -10
21 0 20 -2 52 -6 70 l-5 34 15 -34 c9 -18 16 -43 16 -55z"/>
<path d="M4420 4770 c0 -5 4 -10 9 -10 6 0 13 5 16 10 3 6 -1 10 -9 10 -9 0
-16 -4 -16 -10z"/>
<path d="M4510 4773 c-14 -6 -35 -32 -33 -43 1 -3 -3 -13 -8 -22 -12 -23 8
-24 32 -2 19 17 39 11 39 -12 0 -8 5 -12 10 -9 6 4 8 10 5 15 -11 18 7 60 25
60 16 0 17 -4 7 -35 -16 -54 3 -66 43 -26 17 17 27 31 22 31 -5 0 -15 -7 -22
-15 -18 -22 -44 -20 -35 3 19 46 18 52 -10 52 -18 0 -28 -6 -32 -20 -6 -22
-23 -27 -23 -7 0 6 -5 4 -11 -5 -12 -22 -29 -23 -29 -4 0 8 9 18 20 21 11 3
20 11 20 16 0 5 -1 9 -2 8 -2 0 -10 -3 -18 -6z"/>
<path d="M4625 4760 c-3 -5 -2 -10 4 -10 5 0 13 5 16 10 3 6 2 10 -4 10 -5 0
-13 -4 -16 -10z"/>
<path d="M4681 4756 c-10 -12 -8 -13 9 -9 25 7 37 23 17 23 -8 0 -20 -6 -26
-14z"/>
<path d="M4761 4761 c-10 -6 -10 -10 -1 -16 13 -8 24 -1 19 14 -3 6 -10 7 -18
2z"/>
<path d="M4866 4744 c-11 -28 -7 -37 10 -23 14 12 16 10 12 -16 -2 -22 2 -31
15 -33 9 -2 17 1 17 7 0 6 -4 11 -10 11 -14 0 -13 43 2 58 9 9 6 12 -14 12
-14 0 -29 -7 -32 -16z"/>
<path d="M4934 4739 c-19 -22 -19 -22 4 -10 12 6 22 16 22 21 0 15 -5 12 -26
-11z"/>
<path d="M4996 4741 c-17 -19 -17 -19 3 -14 12 3 21 12 21 19 0 18 -4 18 -24
-5z"/>
<path d="M4790 4732 c-14 -9 -27 -20 -30 -23 -3 -3 -15 -9 -27 -13 -13 -4 -23
-12 -23 -18 0 -6 6 -5 15 2 12 10 19 10 27 2 8 -8 20 -1 44 25 46 48 43 58 -6
25z"/>
<path d="M5039 4727 c-14 -13 -24 -28 -21 -35 5 -17 22 -15 22 3 0 8 10 23 22
35 30 28 9 25 -23 -3z"/>
<path d="M5420 4723 c0 -21 3 -24 9 -14 5 8 7 20 4 28 -8 21 -13 15 -13 -14z"/>
<path d="M4686 4714 c-15 -14 -26 -28 -22 -31 3 -3 14 3 24 15 11 12 21 19 24
17 3 -3 11 1 18 10 21 26 -11 18 -44 -11z"/>
<path d="M5524 4726 c-3 -8 -12 -12 -21 -9 -8 3 -19 0 -24 -8 -8 -12 -11 -12
-19 1 -5 8 -10 11 -10 5 0 -20 17 -38 24 -26 10 16 36 14 30 -3 -4 -9 0 -14
10 -12 19 3 34 16 17 16 -8 0 -6 8 5 25 10 16 12 25 5 25 -6 0 -14 -6 -17 -14z"/>
<path d="M5697 4733 c-12 -12 -7 -22 8 -17 8 4 15 10 15 15 0 11 -14 12 -23 2z"/>
<path d="M5850 4730 c-13 -8 -12 -10 3 -10 9 0 17 5 17 10 0 12 -1 12 -20 0z"/>
<path d="M5075 4719 c-4 -6 -5 -12 -2 -15 2 -3 7 2 10 11 7 17 1 20 -8 4z"/>
<path d="M5650 4719 c0 -5 5 -7 10 -4 6 3 10 8 10 11 0 2 -4 4 -10 4 -5 0 -10
-5 -10 -11z"/>
<path d="M4415 4700 c-13 -6 -15 -9 -5 -9 8 0 22 4 30 9 18 12 2 12 -25 0z"/>
<path d="M4952 4690 c0 -14 2 -19 5 -12 2 6 2 18 0 25 -3 6 -5 1 -5 -13z"/>
<path d="M5124 4699 c-3 -6 -1 -16 5 -22 8 -8 11 -5 11 11 0 24 -5 28 -16 11z"/>
<path d="M5170 4690 c0 -19 3 -21 12 -12 9 9 9 15 0 24 -9 9 -12 7 -12 -12z"/>
<path d="M5243 4703 c-7 -2 -13 -13 -13 -24 0 -18 1 -18 20 1 28 28 25 37 -7
23z"/>
<path d="M5353 4685 c-15 -13 -22 -25 -15 -25 7 0 15 7 19 16 3 9 8 11 12 6
10 -16 64 -19 69 -4 2 7 0 12 -5 11 -24 -4 -53 2 -48 11 11 17 -3 11 -32 -15z"/>
<path d="M6015 4685 c-20 -16 -25 -24 -14 -25 21 0 53 24 48 38 -3 7 -15 3
-34 -13z"/>
<path d="M4825 4691 c-3 -5 -1 -12 4 -15 5 -3 11 1 15 9 6 16 -9 21 -19 6z"/>
<path d="M4985 4689 c-4 -6 -5 -12 -2 -15 2 -3 7 2 10 11 7 17 1 20 -8 4z"/>
<path d="M5608 4693 c-19 -5 -24 -18 -9 -27 4 -3 16 3 26 14 18 20 16 22 -17
13z"/>
<path d="M5656 4684 c-9 -24 -7 -28 9 -14 17 14 20 30 6 30 -5 0 -12 -7 -15
-16z"/>
<path d="M5760 4688 c0 -9 -6 -19 -12 -21 -10 -4 -10 -6 0 -6 14 -1 28 26 18
36 -3 4 -6 -1 -6 -9z"/>
<path d="M5808 4686 c-10 -7 -18 -19 -18 -27 0 -11 2 -11 10 1 9 13 11 13 20
0 8 -12 10 -9 10 13 0 31 1 31 -22 13z"/>
<path d="M5291 4674 c0 -11 3 -14 6 -6 3 7 2 16 -1 19 -3 4 -6 -2 -5 -13z"/>
<path d="M5550 4674 c0 -8 5 -12 10 -9 6 3 10 10 10 16 0 5 -4 9 -10 9 -5 0
-10 -7 -10 -16z"/>
<path d="M5922 4665 c0 -16 2 -22 5 -12 2 9 2 23 0 30 -3 6 -5 -1 -5 -18z"/>
<path d="M5951 4674 c0 -11 3 -14 6 -6 3 7 2 16 -1 19 -3 4 -6 -2 -5 -13z"/>
<path d="M5700 4670 c0 -5 5 -10 10 -10 6 0 10 5 10 10 0 6 -4 10 -10 10 -5 0
-10 -4 -10 -10z"/>
<path d="M5855 4671 c-3 -5 -1 -12 5 -16 5 -3 10 1 10 9 0 18 -6 21 -15 7z"/>
<path d="M5890 4655 c0 -8 2 -15 4 -15 2 0 6 7 10 15 3 8 1 15 -4 15 -6 0 -10
-7 -10 -15z"/>
<path d="M6672 4665 c0 -16 2 -22 5 -12 2 9 2 23 0 30 -3 6 -5 -1 -5 -18z"/>
<path d="M6939 4674 c-12 -15 -11 -16 10 -9 16 5 21 4 17 -4 -8 -12 6 -15 17
-4 7 7 -11 33 -23 33 -4 0 -14 -7 -21 -16z"/>
<path d="M7085 4680 c-3 -5 -1 -10 4 -10 6 0 11 5 11 10 0 6 -2 10 -4 10 -3 0
-8 -4 -11 -10z"/>
<path d="M6718 4663 c-10 -2 -18 -10 -18 -18 0 -8 7 -11 20 -8 11 3 20 12 20
19 0 8 -1 13 -2 13 -2 -1 -11 -3 -20 -6z"/>
<path d="M6777 4663 c-4 -3 -7 -11 -7 -17 0 -6 5 -5 12 2 6 6 9 14 7 17 -3 3
-9 2 -12 -2z"/>
<path d="M6833 4663 c-7 -2 -13 -9 -13 -15 0 -7 5 -6 14 1 7 6 22 8 31 4 13
-4 16 -3 11 5 -7 12 -22 14 -43 5z"/>
<path d="M7018 4663 c7 -3 16 -2 19 1 4 3 -2 6 -13 5 -11 0 -14 -3 -6 -6z"/>
<path d="M7099 4643 c-7 -16 -15 -31 -17 -35 -2 -5 3 -8 12 -8 9 0 16 8 16 19
0 11 5 23 10 26 12 8 13 25 2 25 -5 0 -15 -12 -23 -27z"/>
<path d="M6890 4650 c0 -5 4 -10 9 -10 6 0 13 5 16 10 3 6 -1 10 -9 10 -9 0
-16 -4 -16 -10z"/>
<path d="M6995 4640 c-3 -5 1 -10 10 -10 9 0 13 5 10 10 -3 6 -8 10 -10 10 -2
0 -7 -4 -10 -10z"/>
<path d="M7050 4630 c0 -5 7 -7 15 -4 8 4 15 8 15 10 0 2 -7 4 -15 4 -8 0 -15
-4 -15 -10z"/>
<path d="M7126 4621 c-4 -5 -2 -20 3 -32 l8 -24 7 23 c7 22 16 26 48 23 9 -1
19 3 23 9 4 6 -10 10 -39 10 -25 0 -47 -4 -50 -9z"/>
<path d="M7185 4590 c3 -5 12 -7 20 -4 7 3 24 -1 37 -10 22 -15 24 -14 25 4 2
17 -5 20 -43 20 -26 0 -43 -4 -39 -10z"/>
<path d="M7178 4558 c9 -9 15 -9 24 0 9 9 7 12 -12 12 -19 0 -21 -3 -12 -12z"/>
<path d="M1298 4693 c6 -2 18 -2 25 0 6 3 1 5 -13 5 -14 0 -19 -2 -12 -5z"/>
<path d="M1358 4693 c6 -2 18 -2 25 0 6 3 1 5 -13 5 -14 0 -19 -2 -12 -5z"/>
<path d="M1418 4693 c12 -2 30 -2 40 0 9 3 -1 5 -23 4 -22 0 -30 -2 -17 -4z"/>
<path d="M1508 4693 c7 -3 16 -2 19 1 4 3 -2 6 -13 5 -11 0 -14 -3 -6 -6z"/>
<path d="M1238 4677 c-10 -24 -10 -99 0 -113 5 -8 134 -13 427 -18 409 -6 475
-8 794 -22 124 -5 155 -4 162 7 5 8 9 45 9 82 0 53 -3 69 -16 74 -20 7 -48 -9
-50 -28 0 -8 -2 -28 -2 -46 l-2 -32 -107 4 c-163 5 -171 8 -33 15 l125 5 -219
9 c-160 6 -225 5 -238 -3 -12 -8 -115 -11 -335 -10 -187 1 -304 4 -283 9 19 5
100 7 180 5 80 -1 170 1 200 5 34 4 -36 8 -189 9 -212 1 -242 -1 -237 -14 4
-13 -9 -15 -92 -15 -60 0 -92 4 -83 9 8 5 43 8 78 7 35 -1 66 1 69 6 3 4 -29
8 -70 8 l-75 0 -3 33 c-2 25 -5 28 -10 14z"/>
<path d="M1718 4683 c7 -3 16 -2 19 1 4 3 -2 6 -13 5 -11 0 -14 -3 -6 -6z"/>
<path d="M1899 4680 c93 -11 640 -11 616 -1 -11 5 -168 9 -350 9 -196 0 -304
-4 -266 -8z"/>
<path d="M3115 4675 c-70 -24 -103 -64 -130 -151 -36 -119 7 -283 92 -353 77
-64 185 -23 236 89 29 64 31 237 3 295 -43 90 -134 144 -201 120z m160 -148
c5 -32 5 -32 -7 3 -6 19 -15 37 -19 40 -3 3 -10 16 -13 30 -6 20 -4 19 14 -8
11 -19 23 -48 25 -65z m-96 7 c68 -48 66 -194 -4 -240 -55 -36 -113 19 -114
108 -1 52 12 91 43 126 23 26 43 28 75 6z m121 -131 c0 -97 -13 -87 -18 13 -3
54 -1 74 7 70 6 -4 11 -39 11 -83z"/>
<path d="M3123 4483 c-14 -5 -18 -33 -5 -33 4 0 13 5 20 12 14 14 19 10 26
-22 4 -15 0 -33 -9 -45 -13 -17 -19 -18 -46 -8 -26 10 -30 10 -25 -3 3 -9 6
-20 6 -25 0 -5 11 -16 24 -24 50 -33 100 38 76 109 -13 40 -34 53 -67 39z"/>
<path d="M6236 4540 c-55 -48 -70 -92 -70 -195 1 -101 9 -127 54 -179 26 -29
39 -36 70 -36 58 0 101 35 129 105 27 68 39 159 22 169 -6 4 -11 17 -11 30 0
31 -52 102 -89 121 -43 22 -66 19 -105 -15z m112 -146 c7 -21 10 -50 7 -65 -9
-38 -42 -79 -65 -79 -21 0 -57 46 -46 58 4 4 12 -1 17 -11 6 -9 16 -17 24 -17
23 0 48 46 41 75 -8 30 -26 33 -26 5 0 -22 -34 -44 -56 -36 -30 12 -2 120 34
129 28 6 56 -18 70 -59z"/>
<path d="M6295 4400 c3 -5 8 -10 11 -10 2 0 4 5 4 10 0 6 -5 10 -11 10 -5 0
-7 -4 -4 -10z"/>
<path d="M4605 6400 c3 -5 8 -10 11 -10 2 0 4 5 4 10 0 6 -5 10 -11 10 -5 0
-7 -4 -4 -10z"/>
<path d="M1208 3943 c6 -2 18 -2 25 0 6 3 1 5 -13 5 -14 0 -19 -2 -12 -5z"/>
<path d="M5447 3742 c-22 -3 -28 -8 -25 -25 3 -20 9 -22 88 -25 47 -2 95 0
108 3 24 6 30 29 10 41 -12 8 -134 12 -181 6z"/>
<path d="M4510 3634 c-14 -3 -34 -9 -45 -13 -11 -5 -38 -14 -61 -20 -23 -6
-58 -22 -78 -36 -20 -14 -41 -25 -46 -25 -21 0 -140 -145 -177 -217 -48 -92
-59 -129 -72 -246 -22 -193 49 -401 178 -520 52 -48 187 -117 229 -117 43 -1
43 -15 3 -84 -22 -38 -37 -74 -34 -82 4 -11 36 -14 152 -14 141 0 148 1 169
23 26 27 29 72 6 81 -9 3 -29 6 -44 6 -66 0 -32 44 41 53 133 17 259 95 352
218 31 41 38 98 16 125 -14 17 -105 64 -125 64 -6 0 -37 -25 -70 -55 -82 -77
-122 -96 -214 -102 -68 -5 -83 -3 -125 18 -60 30 -118 87 -146 145 -34 71 -47
191 -32 282 17 99 42 149 106 210 42 39 64 52 106 61 64 13 142 5 192 -20 42
-21 99 -75 99 -93 0 -7 9 -21 21 -32 25 -22 89 -22 148 2 33 13 42 22 47 50 7
38 7 37 -34 154 -66 185 -79 198 -155 162 l-45 -21 -53 20 c-40 15 -84 22
-169 24 -63 2 -126 1 -140 -1z"/>
<path d="M1710 3612 c-75 -6 -81 -47 -15 -112 l45 -44 0 -414 c0 -283 -3 -420
-11 -435 -6 -12 -26 -36 -45 -54 -41 -39 -45 -75 -10 -98 21 -14 74 -16 438
-13 455 4 452 3 548 69 71 48 107 109 122 202 13 86 3 151 -34 213 -32 54
-122 113 -175 115 -20 1 -23 3 -9 6 60 15 156 110 156 154 0 10 5 21 10 24 17
10 11 108 -10 169 -25 73 -48 102 -118 149 -100 66 -125 70 -507 71 -187 1
-360 0 -385 -2z m539 -212 c20 -5 48 -12 63 -15 39 -8 60 -44 60 -108 1 -101
-36 -124 -209 -134 l-112 -6 -3 124 c-2 68 -1 130 1 137 4 15 145 17 200 2z
m-7 -473 c108 -5 137 -17 164 -69 22 -43 22 -116 0 -150 -26 -40 -68 -51 -216
-55 l-135 -3 -5 103 c-3 56 -3 120 -2 143 l4 41 46 -3 c26 -2 91 -5 144 -7z"/>
<path d="M3040 3612 c-41 -2 -80 -8 -87 -14 -17 -14 -17 -55 0 -65 7 -4 23
-23 36 -41 22 -32 22 -33 22 -415 0 -210 0 -406 -1 -435 0 -47 -4 -57 -35 -89
-36 -37 -42 -61 -25 -94 10 -18 26 -19 454 -19 515 0 479 -7 496 100 5 36 15
89 21 119 13 66 7 94 -24 108 -20 9 -36 3 -114 -42 l-92 -52 -167 -6 c-92 -4
-171 -4 -175 -1 -5 3 -9 61 -9 130 l0 124 108 0 c100 0 111 -2 162 -30 61 -32
86 -36 113 -16 16 12 17 30 15 162 l-3 148 -27 15 c-24 14 -31 13 -92 -12 -58
-23 -80 -27 -171 -27 l-105 0 0 116 0 117 173 -6 c169 -5 176 -6 243 -37 38
-18 79 -37 91 -43 17 -7 28 -6 49 7 29 20 29 21 0 166 -26 132 -24 130 -108
131 -207 3 -682 4 -748 1z"/>
<path d="M5335 3612 c-72 -6 -84 -37 -35 -90 16 -18 32 -43 35 -55 3 -12 5
-216 3 -454 l-3 -432 -33 -34 c-25 -26 -33 -42 -30 -63 3 -25 8 -30 43 -36 22
-4 120 -7 217 -7 148 -1 179 2 192 15 23 23 19 57 -9 84 -14 13 -30 40 -35 60
-13 48 -14 838 -2 870 6 14 22 36 36 49 27 25 33 55 16 81 -8 12 -39 15 -182
15 -95 0 -191 -1 -213 -3z"/>
<path d="M5910 3608 c-30 -11 -36 -55 -13 -81 54 -59 54 -56 60 -368 3 -162 2
-355 -2 -430 l-7 -136 -34 -37 c-34 -37 -42 -68 -24 -96 7 -12 43 -16 189 -18
119 -2 186 0 200 8 34 17 28 65 -14 111 l-35 39 -1 153 c-1 293 -1 382 0 397
1 8 14 -16 30 -55 15 -38 38 -92 50 -120 31 -69 37 -85 52 -125 7 -19 22 -57
34 -85 12 -27 39 -90 60 -140 21 -49 45 -96 54 -102 16 -14 138 -18 158 -5 7
4 26 41 43 82 17 41 37 89 45 105 7 17 30 73 50 125 21 52 41 102 45 110 14
30 38 86 58 135 54 133 53 138 50 -183 l-3 -293 -37 -35 c-26 -24 -38 -44 -38
-62 0 -56 2 -57 229 -60 l210 -3 15 28 c17 33 11 48 -41 106 l-34 38 3 430 3
431 33 29 c26 23 32 36 32 69 l0 40 -67 2 c-62 1 -113 1 -334 -1 l-76 -1 -28
-67 c-15 -38 -36 -86 -46 -108 -9 -22 -34 -87 -54 -145 -49 -136 -58 -160 -73
-187 -7 -12 -12 -29 -12 -37 0 -8 -5 -26 -12 -40 l-11 -26 -11 23 c-7 12 -25
58 -40 102 -16 44 -33 84 -37 90 -5 5 -9 15 -9 23 0 8 -6 28 -14 45 -8 18 -24
59 -36 92 -47 132 -94 235 -110 236 -94 4 -436 2 -450 -3z m510 -248 c0 -5 -5
-10 -11 -10 -5 0 -7 5 -4 10 3 6 8 10 11 10 2 0 4 -4 4 -10z m-30 -30 c0 -5
-4 -10 -10 -10 -5 0 -10 5 -10 10 0 6 5 10 10 10 6 0 10 -4 10 -10z m507 -162
c-3 -7 -5 -2 -5 12 0 14 2 19 5 13 2 -7 2 -19 0 -25z m-327 -72 c0 -3 -4 -8
-10 -11 -5 -3 -10 -1 -10 4 0 6 5 11 10 11 6 0 10 -2 10 -4z m530 -375 c0 -12
-20 -25 -27 -18 -7 7 6 27 18 27 5 0 9 -4 9 -9z"/>
<path d="M2373 2149 c-21 -14 -44 -43 -63 -84 -26 -54 -30 -75 -30 -143 0
-127 36 -191 128 -228 38 -15 48 -15 85 -3 55 18 113 77 129 131 15 52 16 159
1 211 -14 48 -56 103 -93 122 -42 22 -118 19 -157 -6z m123 -93 c27 -22 28
-28 28 -117 1 -83 -2 -98 -22 -126 -27 -39 -60 -43 -88 -12 -16 18 -19 37 -19
129 0 92 3 111 19 129 25 27 48 27 82 -3z"/>
<path d="M2670 2110 c0 -64 14 -77 46 -45 9 8 24 15 35 15 18 0 19 -9 19 -190
l0 -190 60 0 c47 0 60 3 60 15 0 8 -4 15 -10 15 -6 0 -10 65 -10 175 l0 175
24 0 c13 0 29 -7 36 -15 18 -22 40 -18 41 8 0 12 2 33 3 47 6 49 3 50 -155 50
l-149 0 0 -60z"/>
<path d="M3083 2135 c-47 -40 -71 -93 -79 -174 -13 -120 30 -222 110 -259 58
-28 66 -27 130 3 45 21 57 33 82 82 68 134 30 312 -78 369 -15 8 -49 14 -76
14 -41 0 -55 -5 -89 -35z m135 -76 c48 -50 42 -226 -9 -270 -29 -25 -33 -24
-63 11 -31 38 -39 79 -34 171 3 60 8 74 27 90 30 25 56 24 79 -2z"/>
<path d="M3580 2163 c-1 -5 -2 -102 -3 -218 -1 -115 -4 -217 -7 -225 -4 -12 8
-16 63 -18 51 -2 67 0 67 11 0 7 -5 18 -11 24 -5 5 -11 33 -11 62 -1 40 3 57
19 73 l21 21 41 -81 c23 -45 41 -88 41 -97 0 -12 13 -15 65 -15 36 0 65 4 65
10 0 5 -12 26 -26 47 -31 45 -114 211 -114 229 0 7 27 45 60 86 33 40 58 78
57 83 -2 6 -33 10 -68 10 l-64 0 0 -30 c0 -20 -14 -49 -45 -88 l-45 -58 -6 37
c-3 19 -2 56 2 81 5 25 6 49 3 54 -6 11 -104 12 -104 2z"/>
<path d="M3965 2160 c-3 -5 -2 -18 4 -27 5 -10 11 -96 12 -190 l4 -173 35 -34
c21 -21 53 -40 80 -47 40 -10 50 -9 92 11 30 14 56 36 70 59 22 34 23 45 20
195 -1 106 2 163 9 172 24 29 2 44 -61 44 -53 0 -60 -2 -60 -19 0 -11 5 -23
10 -26 6 -4 10 -67 10 -156 0 -148 0 -150 -25 -173 -22 -20 -29 -22 -50 -12
-13 6 -26 20 -29 31 -11 40 -6 301 5 312 7 7 9 19 6 27 -5 12 -21 16 -66 16
-33 0 -63 -4 -66 -10z"/>
<path d="M4372 2157 c-9 -10 -7 -19 4 -35 12 -18 14 -52 11 -194 -2 -95 -7
-185 -12 -200 l-7 -28 59 0 60 0 -1 87 c-1 78 1 88 18 91 22 5 32 -9 46 -63 6
-22 15 -49 20 -60 4 -11 11 -28 14 -37 7 -24 116 -27 116 -3 0 8 -4 15 -9 15
-9 0 -71 135 -71 156 0 7 11 21 25 30 31 20 55 68 55 108 -1 47 -47 106 -100
127 -56 22 -211 26 -228 6z m202 -93 c17 -16 20 -26 16 -59 -3 -34 -30 -55
-72 -55 l-38 0 0 65 0 65 39 0 c23 0 46 -7 55 -16z"/>
<path d="M4730 2110 c0 -52 2 -60 19 -60 10 0 24 7 31 15 7 8 21 15 31 15 18
0 19 -10 19 -174 0 -106 -4 -177 -10 -181 -26 -16 -4 -25 60 -25 64 0 86 9 60
25 -6 4 -10 75 -10 181 l0 174 24 0 c13 0 29 -7 36 -15 27 -32 40 -17 40 45
l0 60 -150 0 -150 0 0 -60z"/>
<path d="M5138 2118 c-5 -57 -77 -339 -96 -375 -21 -38 -15 -43 49 -43 l62 0
-6 29 c-3 15 -3 38 0 50 5 18 12 21 63 21 65 0 75 -10 64 -66 l-6 -34 66 0
c72 0 75 3 51 53 -8 18 -19 50 -24 72 -5 22 -21 85 -36 140 -15 55 -30 123
-33 150 l-7 50 -72 3 -71 3 -4 -53z m86 -95 c12 -42 25 -136 20 -144 -3 -5
-19 -9 -36 -9 -33 0 -32 -11 -12 123 7 48 19 61 28 30z"/>
<path d="M5450 2152 c0 -12 5 -24 10 -27 12 -8 8 -365 -5 -402 -7 -22 -5 -23
59 -23 l66 0 -6 58 c-3 31 -7 67 -10 78 -5 25 17 47 38 39 9 -4 28 -44 42 -91
l27 -84 55 0 c60 0 66 9 34 50 -11 14 -20 30 -20 35 0 6 -6 21 -13 35 -29 55
-28 70 8 102 54 47 60 144 12 188 -44 42 -80 52 -189 58 -104 4 -108 4 -108
-16z m202 -89 c24 -21 23 -75 -1 -97 -12 -11 -31 -16 -53 -14 l-33 3 -3 63 -2
62 37 0 c20 0 45 -7 55 -17z"/>
<path d="M5853 2159 c-9 -9 -9 -16 -2 -25 7 -8 9 -87 7 -224 l-3 -211 55 3
c48 3 55 5 52 23 -9 67 -5 225 6 225 4 0 21 -41 37 -91 17 -50 35 -91 40 -91
13 -1 27 28 62 119 14 40 28 72 29 70 7 -6 7 -196 0 -224 l-8 -33 67 0 c61 0
66 2 59 18 -5 9 -10 114 -11 232 l-1 215 -50 3 -49 3 -23 -53 c-45 -107 -63
-139 -73 -135 -6 2 -16 21 -24 43 -14 40 -38 98 -52 124 -10 19 -101 26 -118
9z"/>
<path d="M6425 2158 c-2 -7 -6 -33 -8 -58 -3 -25 -12 -72 -22 -105 -9 -33 -23
-91 -31 -130 -8 -38 -21 -87 -29 -108 -8 -20 -15 -42 -15 -47 0 -13 107 -13
115 0 4 6 2 17 -4 24 -8 10 -8 22 -1 40 9 25 13 27 62 24 l53 -3 3 -47 3 -48
65 0 c37 0 64 4 64 10 0 6 -7 27 -15 48 -9 20 -20 53 -24 72 -5 19 -21 80 -36
135 -15 55 -30 123 -34 150 l-6 50 -68 3 c-48 2 -68 -1 -72 -10z m91 -205 c4
-26 11 -53 15 -59 5 -6 6 -14 2 -17 -8 -8 -67 -9 -75 -1 -5 5 15 108 28 144 8
23 23 -9 30 -67z"/>
<path d="M4269 1456 c-2 -2 -184 -7 -404 -10 -220 -4 -427 -11 -460 -15 l-60
-8 50 -2 c28 -1 149 -6 270 -11 347 -14 567 -29 581 -41 7 -5 34 -9 61 -7 46
3 48 5 51 34 2 17 -3 35 -10 41 -13 10 -73 25 -79 19z"/>
<path d="M4673 1449 c-20 -20 -15 -56 9 -73 24 -17 118 -22 118 -7 0 4 91 11
203 15 111 4 219 11 240 16 21 4 97 9 170 10 72 1 170 6 217 10 82 7 81 7 -60
10 -80 1 -147 2 -150 2 -3 0 -37 3 -75 8 -39 5 -203 11 -365 15 -236 6 -297 4
-307 -6z"/>
<path d="M4460 1431 c-51 -21 -57 -39 -20 -58 52 -26 195 -6 195 27 0 19 -61
49 -100 49 -16 0 -50 -8 -75 -18z m38 -23 c-5 -15 -48 -24 -48 -10 0 14 12 22
33 22 10 0 17 -5 15 -12z"/>
<path d="M5148 1293 c6 -2 18 -2 25 0 6 3 1 5 -13 5 -14 0 -19 -2 -12 -5z"/>
<path d="M3940 1220 c0 -5 12 -10 28 -9 24 0 25 1 7 9 -27 12 -35 12 -35 0z"/>
<path d="M4050 1220 c0 -5 5 -10 10 -10 6 0 10 5 10 10 0 6 -4 10 -10 10 -5 0
-10 -4 -10 -10z"/>
<path d="M4315 1110 c-19 -8 -19 -9 3 -9 12 -1 22 4 22 9 0 6 -1 10 -2 9 -2 0
-12 -4 -23 -9z"/>
<path d="M4158 1103 c6 -2 18 -2 25 0 6 3 1 5 -13 5 -14 0 -19 -2 -12 -5z"/>
</g>
</svg>
